<svg id="b6f20bca-2a9b-48d6-b919-b5432a6e831c" data-name="Layer 1" xmlns="http://www.w3.org/2000/svg" viewBox="0 0 90 64">
  <path d="M2.2,43.7c15.3,6.5,40.7-6.1,40.9-6.2l.3-.1,10.9-.8c4.3-.6,6.6-3.1,6.6-5.2,0-1.9-.3-2.3-.4-2.3-.3-.3-2-.1-3,0l-15.3,1c-3.4.5-12.6,2.4-15.3,5.3a1.487,1.487,0,0,1-2.2-2c3.9-4.2,15.8-6,17.1-6.2l15.4-1c2-.2,3.9-.5,5.2.7l.3.3,16.7-1.8h.2C81.2,25.4,87,24,87,20a3.808,3.808,0,0,0-.1-1.3,17.7,17.7,0,0,0-2.3-.1l-33.3,1H45.6c-12.5,0-23.8,3.3-32,5.6-5.2,1.5-9.2,2.7-12.1,2.7A1.9,1.9,0,0,1,0,26.2a1.538,1.538,0,0,1,1.5-1.5c2.5,0,6.4-1.1,11.3-2.5,8.4-2.4,19.9-5.8,32.8-5.8h5.7l33.3-1c3.9,0,5.4.4,5.4,4.4,0,5.8-6.8,8.4-10.4,8.4L63.8,30c0,.5.1.9.1,1.4,0,3.4-3.2,7.3-9.2,8.2l-10.5.7c-2.3,1.1-17.5,8.3-31.6,8.3A29.55,29.55,0,0,1,1,46.5a1.507,1.507,0,0,1-.8-2A1.6,1.6,0,0,1,2.2,43.7Z"/>
</svg>
