<svg xmlns="http://www.w3.org/2000/svg" xmlns:xlink="http://www.w3.org/1999/xlink" version="1.1" x="0px" y="0px" viewBox="0 0 100 125" style="enable-background:new 0 0 100 100;" xml:space="preserve"><path d="M7.2,61.7c15.3,6.5,40.7-6.1,40.9-6.2l0.3-0.1l10.9-0.8c4.3-0.6,6.6-3.1,6.6-5.2c0-1.9-0.3-2.3-0.4-2.3c-0.3-0.3-2-0.1-3,0  l-15.3,1c-3.4,0.5-12.6,2.4-15.3,5.3c-0.6,0.6-1.5,0.6-2.1,0.1c-0.6-0.6-0.6-1.5-0.1-2.1c3.9-4.2,15.8-6,17.1-6.2l15.4-1  c2-0.2,3.9-0.5,5.2,0.7c0.1,0.1,0.2,0.2,0.3,0.3l16.7-1.8c0.1,0,0.1,0,0.2,0c1.6,0,7.4-1.4,7.4-5.4c0-0.7,0-1.1-0.1-1.3  c-0.5-0.1-1.8-0.1-2.3-0.1l-33.3,1l-5.7,0c-12.5,0-23.8,3.3-32,5.6c-5.2,1.5-9.2,2.7-12.1,2.7C5.7,45.7,5,45,5,44.2s0.7-1.5,1.5-1.5  c2.5,0,6.4-1.1,11.3-2.5c8.4-2.4,19.9-5.8,32.8-5.8l5.7,0l33.3-1c3.9,0,5.4,0.4,5.4,4.4c0,5.8-6.8,8.4-10.4,8.4L68.8,48  c0,0.5,0.1,0.9,0.1,1.4c0,3.4-3.2,7.3-9.2,8.2l-10.5,0.7c-2.3,1.1-17.5,8.3-31.6,8.3c-4.1,0-8.1-0.6-11.6-2.1  c-0.8-0.3-1.1-1.2-0.8-2C5.5,61.8,6.4,61.4,7.2,61.7z"/><text x="0" y="115" fill="#000000" font-size="5px" font-weight="bold" font-family="'Helvetica Neue', Helvetica, Arial-Unicode, Arial, Sans-serif">Created by Till Teenck</text><text x="0" y="120" fill="#000000" font-size="5px" font-weight="bold" font-family="'Helvetica Neue', Helvetica, Arial-Unicode, Arial, Sans-serif">from the Noun Project</text></svg>