<svg id="b3476f9f-38e4-4e23-97e2-8437c41651b7" data-name="Layer 1" xmlns="http://www.w3.org/2000/svg" viewBox="0 0 90 64">
  <g>
    <path d="M9.087,51.1a1.112,1.112,0,0,1,1.224-1.074c9.412.9,37.782,10.824,50.885,5.682a1.3,1.3,0,0,1,1.672.872A1.334,1.334,0,0,1,62,58.25a47.067,47.067,0,0,1-13.6,1.665h0c-10.775,0-31.973-6.37-38.366-7.2a1.1,1.1,0,0,1-.953-1.13Z"/>
    <path d="M7.514,19.25a1.1,1.1,0,0,1,.85-1.329c2.218-.445,7.134-.9,8.2-1.506.136-.087.661-.467,1.455-1.037,10.439-7.5,15.641-10.9,17.42-11.263,2.6-.523,27.734,6.016,28.379,6.883s.447,2.332.3,3.2c-1.489,9.006-3.856,20.556-3.879,20.672a1.336,1.336,0,0,1-1.486,1.053,10.413,10.413,0,0,1-7.232-4.064c-2.385-3.177-2.754-7.374-2.717-9.951a1.116,1.116,0,0,0-.938-1.124c-.368-.059-.761-.127-1.167-.2a1.121,1.121,0,0,0-1.311.923c-.654,3.8-3.233,10.072-12.982,11.96a1.334,1.334,0,0,1-.507-2.619C43.683,28.564,42.96,19.162,42.924,18.769a1.332,1.332,0,0,1,1.714-1.408,39.027,39.027,0,0,0,5.79,1.087,1.339,1.339,0,0,1,.911.51c.2.264-.1,10.2,5.141,13.435a1.116,1.116,0,0,0,1.682-.726c.788-3.949,2.276-11.563,3.324-17.9.072-.432.146-.644-.087-.949-.065-.087-23.862-6.472-25.391-6.095-.9.224-4.5,2.24-16.437,10.824-1.366.981-1.519,1.089-1.648,1.163-1.552.887-6.936,1.476-9.16,1.687a1.11,1.11,0,0,1-1.186-.862Z"/>
    <path d="M62.8,58.333,45.644,55.065c-3.875-.792-6.237-3.768-5.747-7.236.387-2.742,3.1-4.732,6.452-4.732a8.619,8.619,0,0,1,1.707.173l17.085,3.495c4.049.828,6.431,3.736,5.793,7.071-.554,2.894-2.949,4.692-6.251,4.692A9.387,9.387,0,0,1,62.8,58.333ZM42.538,48.2c-.288,2.038,1.175,3.747,3.623,4.247l17.158,3.268c1.605.358,4.56-.1,4.995-2.383s-1.725-3.551-3.707-3.957L47.522,45.883a5.878,5.878,0,0,0-1.172-.119C44.34,45.764,42.736,46.789,42.538,48.2Z"/>
    <path d="M70.616,50.607,50.7,46.533c-4.313-.883-6.6-4.068-5.833-8.116a6.432,6.432,0,0,1,6.679-5.405,9.393,9.393,0,0,1,1.881.2l19.914,4.073a7.585,7.585,0,0,1,4.805,3.254,6.572,6.572,0,0,1-5.771,10.253A8.75,8.75,0,0,1,70.616,50.607Zm-23.13-11.69c-.7,3.682,2.389,4.727,3.75,5L71.15,48a6.086,6.086,0,0,0,1.226.127,3.975,3.975,0,0,0,4.156-3.1c.576-2.6-2.451-4.865-3.725-5.126L52.893,35.821a6.725,6.725,0,0,0-1.346-.141A3.8,3.8,0,0,0,47.486,38.917Z"/>
    <path d="M48.389,36.026c-2.3-1.269-3.151-3.024-2.958-6.059.086-1.36.816-3.307,3.8-4.863a1.333,1.333,0,0,1,1.232,2.365c-1.04.541-2.3,1.444-2.373,2.667-.141,2.213.376,2.886,1.588,3.556a1.187,1.187,0,0,1,.3,1.732A2,2,0,0,1,48.389,36.026Z"/>
    <path d="M74.656,38.893l-10.371-.755a1.332,1.332,0,0,1-1.233-1.427,1.35,1.35,0,0,1,1.425-1.232l10.389.756c1.66.145,4.882-.666,4.981-3.292.113-3-1.617-4.09-4.292-4.321l-14.877-.9a1.333,1.333,0,1,1,.16-2.661l14.912.9c4.109.354,6.764,3.093,6.764,6.98a5.53,5.53,0,0,1-1.776,4.19,7.652,7.652,0,0,1-5.2,1.8Q75.1,38.932,74.656,38.893Z"/>
    <path d="M49.756,27.617a6.142,6.142,0,0,1-6.149-6.563,6.483,6.483,0,0,1,.688-2.647,1.333,1.333,0,0,1,2.417,1.126,3.856,3.856,0,0,0-.439,1.54,3.539,3.539,0,0,0,3.664,3.883,1.333,1.333,0,0,1-.088,2.663Z"/>
    <path d="M59.639,26.361a1.333,1.333,0,0,1,1.333-1.333H72.213c1.1,0,4.677-.276,4.677-3.822,0-2.626-2.425-3.822-4.677-3.822H62.846a1.334,1.334,0,0,1,0-2.667h9.367c4.255,0,7.343,2.729,7.343,6.489,0,3.88-2.951,6.488-7.343,6.488H60.972A1.333,1.333,0,0,1,59.639,26.361Z"/>
  </g>
</svg>
