<svg id="bb93c248-7df1-4036-a3d5-ed672644ebca" data-name="Layer 1" xmlns="http://www.w3.org/2000/svg" viewBox="0 0 90 64">
  <path d="M49.1,13.85,77,7.45a5.633,5.633,0,0,1,4.4.6,5.915,5.915,0,0,1,2.8,3.6,6.01,6.01,0,0,1-4.1,7.3l-24.2,6.8,27,5a6.464,6.464,0,0,1,2.6,11.7,6.309,6.309,0,0,1-4.8,1.1l-21.5-3.8v.8a6.339,6.339,0,0,1-4.9,6.2,6.41,6.41,0,0,1-5.3,10H32.4c-13,0-18.6-2.2-22.7-3.8a16.331,16.331,0,0,0-6.4-1.6,1.5,1.5,0,0,1,0-3,18.015,18.015,0,0,1,7.5,1.8A47.465,47.465,0,0,0,28,53.65a6.405,6.405,0,0,1,4-9.5,6.41,6.41,0,0,1,5.3-10h8.5c-2.6-1.8-4-4.9-5.2-7.7l-6.9-2.2c-1.5,7.5-11.3,10.6-11.7,10.7a1.518,1.518,0,1,1-.9-2.9c.1,0,9.8-3,9.8-9.8a1.425,1.425,0,0,1,.6-1.2,1.258,1.258,0,0,1,1.3-.2l9.3,3a1.22,1.22,0,0,1,.9.8c2.7,6.1,4.7,9,10.2,7.4l-3.8-9.6a7.573,7.573,0,0,0-2.8-3.4L37,14.65a12.4,12.4,0,0,0-4.4-.5h-.2a48.442,48.442,0,0,0-20.8,4.8c-2.9,1.3-5.4,2.4-8.4,2.4a1.5,1.5,0,0,1,0-3c2.4,0,4.4-.9,7.2-2.1a52.621,52.621,0,0,1,21.9-5.1h.3a14.365,14.365,0,0,1,5.4.7c.1,0,.1,0,.2.1l5.6,2.6h.1ZM33.5,46.95a3.407,3.407,0,0,0-.3,6.8H48.9a3.4,3.4,0,0,0,0-6.8Zm3.8-9.9a3.4,3.4,0,1,0,0,6.8H52.7a3.4,3.4,0,0,0,0-6.8Zm19.2-4.7a2.437,2.437,0,0,1,0,1.2,1.549,1.549,0,0,1-.8.8c-.2.1-.4.1-.5.2a6.667,6.667,0,0,1,2.5,1.9l23.4,4.1a3.108,3.108,0,0,0,2.6-.6,2.965,2.965,0,0,0,1.4-2.2,3.108,3.108,0,0,0-.6-2.6,2.965,2.965,0,0,0-2.2-1.4l-27.2-5Zm-4.3-11,.8,2.1,26.2-7.4a2.9,2.9,0,0,0,2-3.6,2.981,2.981,0,0,0-3.6-2.1l-28,6.4h-.2l-.7.2A10.728,10.728,0,0,1,52.2,21.35Z"/>
</svg>
