<svg xmlns="http://www.w3.org/2000/svg" xmlns:xlink="http://www.w3.org/1999/xlink" version="1.1" x="0px" y="0px" viewBox="0 0 100 125" style="enable-background:new 0 0 100 100;" xml:space="preserve"><path d="M52.4,31.8l27.9-6.4c1.5-0.4,3.1-0.2,4.4,0.6c1.4,0.8,2.4,2.1,2.8,3.6c0.8,3.2-1,6.4-4.1,7.3l-24.2,6.8l27,5  c1.7,0.3,3.2,1.2,4.2,2.7c1,1.4,1.4,3.1,1.1,4.8c-0.3,1.7-1.2,3.2-2.7,4.2c-1.4,1-3.1,1.4-4.8,1.1l-21.5-3.8c0,0.3,0,0.5,0,0.8  c0,3-2.1,5.6-4.9,6.2c0.7,1,1.1,2.3,1.1,3.6c0,3.6-2.9,6.4-6.4,6.4l-16.6,0c-13,0-18.6-2.2-22.7-3.8c-2.3-0.9-4-1.6-6.4-1.6  c-0.8,0-1.5-0.7-1.5-1.5s0.7-1.5,1.5-1.5c3,0,5.1,0.8,7.5,1.8c3.4,1.3,7.9,3.1,17.2,3.5c-0.6-1-0.9-2.1-0.9-3.3c0-3,2.1-5.6,4.9-6.2  c-0.7-1-1.1-2.3-1.1-3.6c0-3.6,2.9-6.4,6.4-6.4h8.5c-2.6-1.8-4-4.9-5.2-7.7l-6.9-2.2c-1.5,7.5-11.3,10.6-11.7,10.7  c-0.8,0.2-1.6-0.2-1.9-1c-0.2-0.8,0.2-1.6,1-1.9c0.1,0,9.8-3,9.8-9.8c0-0.5,0.2-0.9,0.6-1.2s0.9-0.4,1.3-0.2l9.3,3  c0.4,0.1,0.8,0.4,0.9,0.8C49,48.7,51,51.6,56.5,50l-3.8-9.6C52.1,39,51.3,38,49.9,37l-9.6-4.4c-1.7-0.5-2.4-0.5-4.4-0.5l-0.2,0  c-10.7,0.3-16.3,2.8-20.8,4.8c-2.9,1.3-5.4,2.4-8.4,2.4c-0.8,0-1.5-0.7-1.5-1.5s0.7-1.5,1.5-1.5c2.4,0,4.4-0.9,7.2-2.1  c4.5-2,10.6-4.7,21.9-5.1h0.3c2.2,0,3.2,0,5.4,0.7c0.1,0,0.1,0,0.2,0.1l5.6,2.6c0,0,0.1,0,0.1,0L52.4,31.8z M36.8,64.9  c-1.9,0-3.4,1.5-3.4,3.4c0,1.8,1.4,3.3,3.1,3.4l15.7,0c1.9,0,3.4-1.5,3.4-3.4s-1.5-3.4-3.4-3.4H36.8z M40.6,55  c-1.9,0-3.4,1.5-3.4,3.4s1.5,3.4,3.4,3.4h11.6H56c1.9,0,3.4-1.5,3.4-3.4S57.9,55,56,55H40.6z M59.8,50.3c0.1,0.4,0.1,0.8,0,1.2  c-0.2,0.4-0.5,0.7-0.8,0.8c-0.2,0.1-0.4,0.1-0.5,0.2c1,0.4,1.8,1.1,2.5,1.9l23.4,4.1c0.9,0.2,1.8,0,2.6-0.6c0.8-0.5,1.3-1.3,1.4-2.2  c0.2-0.9,0-1.8-0.6-2.6c-0.5-0.8-1.3-1.3-2.2-1.4l-27.2-5L59.8,50.3z M55.5,39.3l0.8,2.1l26.2-7.4c1.5-0.4,2.5-2.1,2-3.6  c-0.2-0.8-0.7-1.4-1.4-1.8c-0.7-0.4-1.4-0.5-2.2-0.3l-28,6.4c-0.1,0-0.1,0-0.2,0L52,34.9C53.6,36.1,54.7,37.5,55.5,39.3z"/><text x="0" y="115" fill="#000000" font-size="5px" font-weight="bold" font-family="'Helvetica Neue', Helvetica, Arial-Unicode, Arial, Sans-serif">Created by Till Teenck</text><text x="0" y="120" fill="#000000" font-size="5px" font-weight="bold" font-family="'Helvetica Neue', Helvetica, Arial-Unicode, Arial, Sans-serif">from the Noun Project</text></svg>